<svg width="3954" height="1759" xmlns="http://www.w3.org/2000/svg" xmlns:xlink="http://www.w3.org/1999/xlink" xml:space="preserve" overflow="hidden"><defs><clipPath id="clip0"><rect x="223" y="430" width="3954" height="1759"/></clipPath></defs><g clip-path="url(#clip0)" transform="translate(-223 -430)"><path d="M225 825C225 626.73 385.73 466 584 466 782.27 466 943 626.73 943 825 943 1023.27 782.27 1184 584 1184 385.73 1184 225 1023.27 225 825Z" fill="#3D3880" fill-rule="evenodd"/><text fill="#FFFFFF" font-family="Calibri,Calibri_MSFontService,sans-serif" font-weight="400" font-size="83" transform="matrix(1 0 0 1 390.711 802)">1. Choose a </text><text fill="#FFFFFF" font-family="Calibri,Calibri_MSFontService,sans-serif" font-weight="400" font-size="83" transform="matrix(1 0 0 1 442.892 893)">Problem</text><path d="M692 1201 584 1548 476 1201Z" fill="#B0BCDE" fill-rule="evenodd"/><path d="M345 1794.5C345 1662.23 452.228 1555 584.5 1555 716.772 1555 824 1662.23 824 1794.5 824 1926.77 716.772 2034 584.5 2034 452.228 2034 345 1926.77 345 1794.5Z" fill="#EDC24C" fill-rule="evenodd"/><text font-family="Calibri,Calibri_MSFontService,sans-serif" font-weight="400" font-size="73" transform="matrix(1 0 0 1 445.195 1775)">2. Gather </text><text font-family="Calibri,Calibri_MSFontService,sans-serif" font-weight="400" font-size="73" transform="matrix(1 0 0 1 425.716 1855)">Good Data</text><path d="M955 1686 1302 1794 955 1902Z" fill="#B0BCDE" fill-rule="evenodd"/><path d="M1422 1794.5C1422 1662.23 1529.23 1555 1661.5 1555 1793.77 1555 1901 1662.23 1901 1794.5 1901 1926.77 1793.77 2034 1661.5 2034 1529.23 2034 1422 1926.77 1422 1794.5Z" fill="#8681C1" fill-rule="evenodd"/><text font-family="Calibri,Calibri_MSFontService,sans-serif" font-weight="400" font-size="83" transform="matrix(1 0 0 1 1527.36 1726)">3. Clean </text><text font-family="Calibri,Calibri_MSFontService,sans-serif" font-weight="400" font-size="83" transform="matrix(1 0 0 1 1511.66 1817)">and Prep </text><text font-family="Calibri,Calibri_MSFontService,sans-serif" font-weight="400" font-size="83" transform="matrix(1 0 0 1 1583.6 1908)">Data</text><path d="M1553 1478 1661.5 1131 1770 1478Z" fill="#B0BCDE" fill-rule="evenodd"/><path d="M1422 824.5C1422 692.228 1529.23 585 1661.5 585 1793.77 585 1901 692.228 1901 824.5 1901 956.772 1793.77 1064 1661.5 1064 1529.23 1064 1422 956.772 1422 824.5Z" fill="#94D0A4" fill-rule="evenodd"/><text font-family="Calibri,Calibri_MSFontService,sans-serif" font-weight="400" font-size="73" transform="matrix(1 0 0 1 1515.21 805)">4. Choose </text><text font-family="Calibri,Calibri_MSFontService,sans-serif" font-weight="400" font-size="73" transform="matrix(1 0 0 1 1538.98 885)">a Model</text><path d="M2032 717 2379 825 2032 933Z" fill="#B0BCDE" fill-rule="evenodd"/><path d="M2499 824.5C2499 692.228 2606.23 585 2738.5 585 2870.77 585 2978 692.228 2978 824.5 2978 956.772 2870.77 1064 2738.5 1064 2606.23 1064 2499 956.772 2499 824.5Z" fill="#BCBADC" fill-rule="evenodd"/><text font-family="Calibri,Calibri_MSFontService,sans-serif" font-weight="400" font-size="83" transform="matrix(1 0 0 1 2615.96 757)">5. Train </text><text font-family="Calibri,Calibri_MSFontService,sans-serif" font-weight="400" font-size="83" transform="matrix(1 0 0 1 2682.56 848)">the </text><text font-family="Calibri,Calibri_MSFontService,sans-serif" font-weight="400" font-size="83" transform="matrix(1 0 0 1 2629.9 939)">Model</text><path d="M2847 1142 2738.5 1489 2630 1142Z" fill="#B0BCDE" fill-rule="evenodd"/><path d="M2499 1794.5C2499 1662.23 2606.23 1555 2738.5 1555 2870.77 1555 2978 1662.23 2978 1794.5 2978 1926.77 2870.77 2034 2738.5 2034 2606.23 2034 2499 1926.77 2499 1794.5Z" fill="#E98E30" fill-rule="evenodd"/><text font-family="Calibri,Calibri_MSFontService,sans-serif" font-weight="400" font-size="73" transform="matrix(1 0 0 1 2710.72 1735)">6. </text><text font-family="Calibri,Calibri_MSFontService,sans-serif" font-weight="400" font-size="73" transform="matrix(1 0 0 1 2612.91 1815)">Evaluate </text><text font-family="Calibri,Calibri_MSFontService,sans-serif" font-weight="400" font-size="73" transform="matrix(1 0 0 1 2583.9 1896)">the Model</text><path d="M3049 1686 3396 1794 3049 1902Z" fill="#B0BCDE" fill-rule="evenodd"/><path d="M3457 1794C3457 1595.73 3617.73 1435 3816 1435 4014.27 1435 4175 1595.73 4175 1794 4175 1992.27 4014.27 2153 3816 2153 3617.73 2153 3457 1992.27 3457 1794Z" fill="#65BB7B" fill-rule="evenodd"/><text font-family="Calibri,Calibri_MSFontService,sans-serif" font-weight="400" font-size="83" transform="matrix(1 0 0 1 3592.51 1772)">7. Deploy the </text><text font-family="Calibri,Calibri_MSFontService,sans-serif" font-weight="400" font-size="83" transform="matrix(1 0 0 1 3707.05 1863)">Model</text></g></svg>